<svg xmlns="http://www.w3.org/2000/svg" xmlns:xlink="http://www.w3.org/1999/xlink" width="500" zoomAndPan="magnify" viewBox="0 0 375 374.999991" height="500" preserveAspectRatio="xMidYMid meet" version="1.0"><defs><g/><clipPath id="f49bcdfb08"><rect x="0" width="346" y="0" height="135"/></clipPath></defs><rect x="-37.5" width="450" fill="#ffffff" y="-37.499999" height="449.999989" fill-opacity="1"/><rect x="-37.5" width="450" fill="#eeede9" y="-37.499999" height="449.999989" fill-opacity="1"/><g transform="matrix(1, 0, 0, 1, 14, 119)"><g clip-path="url(#f49bcdfb08)"><g fill="#1b1b1b" fill-opacity="1"><g transform="translate(1.688297, 96.678974)"><g><path d="M 39.125 -95.078125 L 20.296875 -29.4375 L 20.546875 -29.171875 L 41.765625 -45.625 C 42.210938 -45.96875 43.253906 -46.78125 44.890625 -48.0625 C 46.523438 -49.351562 47.847656 -50.550781 48.859375 -51.65625 C 49.878906 -52.757812 50.390625 -53.707031 50.390625 -54.5 C 50.390625 -56 48.625 -56.75 45.09375 -56.75 L 45.75 -59.140625 L 72 -59.140625 L 71.34375 -56.75 C 66.832031 -56.664062 62.191406 -55.273438 57.421875 -52.578125 C 52.648438 -49.878906 45.796875 -45.039062 36.859375 -38.0625 L 45.21875 -15.125 C 46.457031 -11.675781 47.519531 -9.175781 48.40625 -7.625 C 49.289062 -6.070312 50.394531 -5.296875 51.71875 -5.296875 C 53.132812 -5.296875 54.925781 -6.179688 57.09375 -7.953125 C 59.257812 -9.722656 61.535156 -12.113281 63.921875 -15.125 L 65.90625 -13.796875 C 57.414062 -3.535156 50.785156 1.59375 46.015625 1.59375 C 44.515625 1.59375 43.097656 1 41.765625 -0.1875 C 40.441406 -1.382812 39.117188 -3.796875 37.796875 -7.421875 L 28.78125 -31.953125 L 18.828125 -24.265625 L 11.9375 0 L 1.859375 0 L 25.328125 -81.953125 C 25.941406 -83.984375 26.25 -85.488281 26.25 -86.46875 C 26.25 -87.613281 25.851562 -88.515625 25.0625 -89.171875 C 24.269531 -89.835938 23.164062 -90.171875 21.75 -90.171875 C 20.601562 -90.171875 19.5625 -90.082031 18.625 -89.90625 C 17.695312 -89.726562 17.054688 -89.597656 16.703125 -89.515625 L 16.703125 -92.03125 L 36.734375 -95.078125 Z M 39.125 -95.078125 "/></g></g></g><g fill="#1b1b1b" fill-opacity="1"><g transform="translate(62.82007, 96.678974)"><g><path d="M 41.234375 -60.609375 C 43.628906 -60.609375 45.796875 -59.789062 47.734375 -58.15625 C 49.679688 -56.519531 50.875 -54.238281 51.3125 -51.3125 L 51.578125 -51.3125 L 53.703125 -59.140625 L 64.1875 -60.609375 L 50.53125 -12.734375 C 50.4375 -12.554688 50.210938 -11.890625 49.859375 -10.734375 C 49.503906 -9.585938 49.328125 -8.441406 49.328125 -7.296875 C 49.328125 -6.585938 49.503906 -6.035156 49.859375 -5.640625 C 50.210938 -5.242188 50.609375 -5.046875 51.046875 -5.046875 C 52.203125 -5.046875 53.660156 -5.835938 55.421875 -7.421875 C 57.191406 -9.015625 58.875 -11.226562 60.46875 -14.0625 L 62.453125 -12.734375 C 60.066406 -8.304688 57.039062 -4.8125 53.375 -2.25 C 49.707031 0.3125 46.457031 1.59375 43.625 1.59375 C 42.03125 1.59375 40.835938 1.019531 40.046875 -0.125 C 39.253906 -1.28125 38.859375 -2.695312 38.859375 -4.375 C 38.859375 -5.519531 39.097656 -7.394531 39.578125 -10 C 40.066406 -12.613281 40.84375 -15.25 41.90625 -17.90625 L 41.640625 -18.171875 C 31.734375 -4.992188 22.757812 1.59375 14.71875 1.59375 C 11.1875 1.59375 8.378906 0.0664062 6.296875 -2.984375 C 4.222656 -6.035156 3.1875 -9.550781 3.1875 -13.53125 C 3.1875 -20.425781 5.195312 -27.5625 9.21875 -34.9375 C 13.238281 -42.320312 18.234375 -48.445312 24.203125 -53.3125 C 30.171875 -58.175781 35.847656 -60.609375 41.234375 -60.609375 Z M 13.796875 -16.046875 C 13.796875 -12.597656 14.585938 -10.078125 16.171875 -8.484375 C 17.765625 -6.890625 19.625 -6.09375 21.75 -6.09375 C 24.488281 -6.09375 27.445312 -7.332031 30.625 -9.8125 C 33.8125 -12.289062 36.753906 -15.453125 39.453125 -19.296875 C 42.148438 -23.140625 44.160156 -27.050781 45.484375 -31.03125 C 46.804688 -34.914062 47.773438 -38.117188 48.390625 -40.640625 C 49.015625 -43.160156 49.328125 -45.613281 49.328125 -48 C 49.328125 -51.445312 48.53125 -53.988281 46.9375 -55.625 C 45.351562 -57.257812 43.5 -58.078125 41.375 -58.078125 C 37.21875 -58.078125 32.992188 -55.535156 28.703125 -50.453125 C 24.421875 -45.367188 20.863281 -39.421875 18.03125 -32.609375 C 15.207031 -25.804688 13.796875 -20.285156 13.796875 -16.046875 Z M 13.796875 -16.046875 "/></g></g></g><g fill="#1b1b1b" fill-opacity="1"><g transform="translate(119.841035, 96.678974)"><g><path d="M 18.4375 -14.859375 C 17.8125 -12.734375 17.34375 -11.03125 17.03125 -9.75 C 16.726562 -8.46875 16.578125 -7.382812 16.578125 -6.5 C 16.578125 -5.875 16.726562 -5.40625 17.03125 -5.09375 C 17.34375 -4.789062 17.632812 -4.640625 17.90625 -4.640625 C 18.96875 -4.640625 20.78125 -5.921875 23.34375 -8.484375 C 25.90625 -11.046875 27.492188 -12.859375 28.109375 -13.921875 L 30.234375 -12.734375 C 27.398438 -8.835938 24.300781 -5.472656 20.9375 -2.640625 C 17.582031 0.179688 14.445312 1.59375 11.53125 1.59375 C 8 1.59375 6.234375 -0.484375 6.234375 -4.640625 C 6.234375 -6.316406 6.585938 -8.394531 7.296875 -10.875 C 8.003906 -13.351562 8.488281 -14.988281 8.75 -15.78125 L 27.578125 -81.296875 C 28.109375 -83.328125 28.375 -84.914062 28.375 -86.0625 C 28.375 -87.207031 27.972656 -88.132812 27.171875 -88.84375 C 26.378906 -89.550781 25.367188 -89.90625 24.140625 -89.90625 C 22.453125 -89.90625 20.945312 -89.773438 19.625 -89.515625 L 19.625 -92.03125 L 39.125 -95.078125 L 41.375 -95.078125 L 20.15625 -20.8125 C 19.269531 -17.632812 18.695312 -15.648438 18.4375 -14.859375 Z M 18.4375 -14.859375 "/></g></g></g><g fill="#1b1b1b" fill-opacity="1"><g transform="translate(146.495015, 96.678974)"><g><path d="M 31.5625 -87.125 C 33.414062 -87.125 35.003906 -86.457031 36.328125 -85.125 C 37.660156 -83.800781 38.328125 -82.257812 38.328125 -80.5 C 38.328125 -78.632812 37.660156 -77.039062 36.328125 -75.71875 C 35.003906 -74.394531 33.414062 -73.734375 31.5625 -73.734375 C 29.789062 -73.734375 28.242188 -74.394531 26.921875 -75.71875 C 25.597656 -77.039062 24.9375 -78.632812 24.9375 -80.5 C 24.9375 -82.257812 25.597656 -83.800781 26.921875 -85.125 C 28.242188 -86.457031 29.789062 -87.125 31.5625 -87.125 Z M 18.5625 -11.796875 C 17.851562 -9.503906 17.5 -7.914062 17.5 -7.03125 C 17.5 -5.613281 18.253906 -4.90625 19.765625 -4.90625 C 20.816406 -4.90625 22.289062 -5.722656 24.1875 -7.359375 C 26.09375 -8.992188 28.066406 -11.40625 30.109375 -14.59375 L 32.21875 -13.265625 C 29.300781 -8.753906 26.03125 -5.148438 22.40625 -2.453125 C 18.78125 0.242188 15.46875 1.59375 12.46875 1.59375 C 10.695312 1.59375 9.347656 1.019531 8.421875 -0.125 C 7.492188 -1.28125 7.03125 -2.832031 7.03125 -4.78125 C 7.03125 -6.1875 7.296875 -7.820312 7.828125 -9.6875 L 18.4375 -46.140625 C 19.050781 -48.359375 19.359375 -49.910156 19.359375 -50.796875 C 19.359375 -51.941406 18.957031 -52.957031 18.15625 -53.84375 C 17.363281 -54.726562 16.175781 -55.171875 14.59375 -55.171875 C 13.96875 -55.171875 12.285156 -54.945312 9.546875 -54.5 L 10.203125 -56.75 L 30.375 -60.609375 L 32.625 -60.609375 Z M 18.5625 -11.796875 "/></g></g></g><g fill="#1b1b1b" fill-opacity="1"><g transform="translate(173.148995, 96.678974)"><g><path d="M 42.703125 -60.609375 C 45.878906 -60.609375 48.882812 -59.765625 51.71875 -58.078125 C 54.550781 -56.398438 56.828125 -54.035156 58.546875 -50.984375 C 60.273438 -47.929688 61.140625 -44.460938 61.140625 -40.578125 C 61.140625 -32.796875 59.148438 -25.675781 55.171875 -19.21875 C 51.191406 -12.769531 46.21875 -7.6875 40.25 -3.96875 C 34.28125 -0.257812 28.597656 1.59375 23.203125 1.59375 C 18.867188 1.59375 15.332031 0.46875 12.59375 -1.78125 C 9.851562 -4.039062 7.863281 -6.757812 6.625 -9.9375 C 5.394531 -13.125 4.78125 -16.132812 4.78125 -18.96875 C 4.78125 -24.976562 6.632812 -31.253906 10.34375 -37.796875 C 14.050781 -44.335938 18.84375 -49.773438 24.71875 -54.109375 C 30.601562 -58.441406 36.597656 -60.609375 42.703125 -60.609375 Z M 15.640625 -13.921875 C 15.640625 -10.390625 16.566406 -7.472656 18.421875 -5.171875 C 20.285156 -2.867188 22.675781 -1.71875 25.59375 -1.71875 C 28.332031 -1.71875 30.914062 -2.535156 33.34375 -4.171875 C 35.78125 -5.804688 37.835938 -8.039062 39.515625 -10.875 C 42.785156 -16.175781 45.457031 -22.078125 47.53125 -28.578125 C 49.613281 -35.078125 50.65625 -40.492188 50.65625 -44.828125 C 50.65625 -53.484375 47.382812 -57.8125 40.84375 -57.8125 C 36.15625 -57.8125 31.890625 -55.222656 28.046875 -50.046875 C 24.203125 -44.878906 21.171875 -38.78125 18.953125 -31.75 C 16.742188 -24.726562 15.640625 -18.785156 15.640625 -13.921875 Z M 15.640625 -13.921875 "/></g></g></g><g fill="#1b1b1b" fill-opacity="1"><g transform="translate(230.16996, 96.678974)"><g><path d="M 31.953125 -60.609375 L 27.453125 -45.484375 L 27.71875 -45.21875 C 31.78125 -50.96875 35.359375 -54.96875 38.453125 -57.21875 C 41.546875 -59.476562 44.773438 -60.609375 48.140625 -60.609375 C 52.296875 -60.609375 55.628906 -59.125 58.140625 -56.15625 C 60.660156 -53.195312 61.921875 -48.976562 61.921875 -43.5 C 61.921875 -36.78125 60.039062 -29.882812 56.28125 -22.8125 C 52.53125 -15.738281 47.738281 -9.898438 41.90625 -5.296875 C 36.070312 -0.703125 30.238281 1.59375 24.40625 1.59375 C 22.632812 1.59375 21.0625 1.347656 19.6875 0.859375 C 18.320312 0.367188 16.753906 -0.398438 14.984375 -1.453125 L 10.609375 13.796875 C 10.515625 14.054688 10.222656 14.9375 9.734375 16.4375 C 9.253906 17.945312 9.015625 19.316406 9.015625 20.546875 C 9.015625 22.765625 9.742188 24.179688 11.203125 24.796875 C 12.660156 25.410156 15.289062 25.71875 19.09375 25.71875 L 18.4375 28.109375 L -11.9375 28.109375 L -12.203125 25.71875 C -9.367188 25.71875 -7.203125 25.410156 -5.703125 24.796875 C -4.203125 24.179688 -3.03125 23.144531 -2.1875 21.6875 C -1.34375 20.226562 -0.523438 18.082031 0.265625 15.25 L 16.84375 -42.828125 C 16.925781 -43.097656 17.210938 -44.140625 17.703125 -45.953125 C 18.191406 -47.765625 18.4375 -49.421875 18.4375 -50.921875 C 18.4375 -53.484375 17.242188 -54.765625 14.859375 -54.765625 C 14.328125 -54.765625 13.617188 -54.695312 12.734375 -54.5625 C 11.847656 -54.4375 11.179688 -54.328125 10.734375 -54.234375 L 10.609375 -56.75 L 29.84375 -60.609375 Z M 24.796875 -1.0625 C 29.128906 -1.0625 33.304688 -3.40625 37.328125 -8.09375 C 41.347656 -12.78125 44.597656 -18.394531 47.078125 -24.9375 C 49.554688 -31.476562 50.796875 -37.265625 50.796875 -42.296875 C 50.796875 -45.921875 50.128906 -48.835938 48.796875 -51.046875 C 47.472656 -53.265625 45.707031 -54.375 43.5 -54.375 C 36.957031 -54.375 30.503906 -47.390625 24.140625 -33.421875 L 16.171875 -5.96875 C 18.296875 -2.695312 21.171875 -1.0625 24.796875 -1.0625 Z M 24.796875 -1.0625 "/></g></g></g><g fill="#1b1b1b" fill-opacity="1"><g transform="translate(287.190925, 96.678974)"><g><path d="M 42.96875 -60.609375 C 46.675781 -60.609375 49.789062 -59.675781 52.3125 -57.8125 C 54.832031 -55.957031 56.09375 -53.570312 56.09375 -50.65625 C 56.09375 -47.820312 54.765625 -44.59375 52.109375 -40.96875 C 49.460938 -37.351562 45.15625 -34.148438 39.1875 -31.359375 C 33.21875 -28.578125 25.632812 -27.050781 16.4375 -26.78125 C 15.90625 -25.019531 15.640625 -22.859375 15.640625 -20.296875 C 15.640625 -14.898438 17.097656 -10.984375 20.015625 -8.546875 C 22.941406 -6.117188 26.171875 -4.90625 29.703125 -4.90625 C 35.628906 -4.90625 41.640625 -7.867188 47.734375 -13.796875 L 49.46875 -12.203125 C 40.007812 -3.003906 30.859375 1.59375 22.015625 1.59375 C 18.390625 1.59375 15.226562 0.6875 12.53125 -1.125 C 9.832031 -2.9375 7.796875 -5.300781 6.421875 -8.21875 C 5.054688 -11.132812 4.375 -14.140625 4.375 -17.234375 C 4.375 -23.421875 6.164062 -29.914062 9.75 -36.71875 C 13.332031 -43.53125 18.101562 -49.210938 24.0625 -53.765625 C 30.03125 -58.328125 36.332031 -60.609375 42.96875 -60.609375 Z M 17.234375 -29.3125 C 23.242188 -29.75 28.109375 -30.765625 31.828125 -32.359375 C 35.453125 -33.953125 38.390625 -36.003906 40.640625 -38.515625 C 42.898438 -41.035156 44.515625 -43.507812 45.484375 -45.9375 C 46.453125 -48.375 46.9375 -50.390625 46.9375 -51.984375 C 46.9375 -53.484375 46.382812 -54.875 45.28125 -56.15625 C 44.175781 -57.4375 42.609375 -58.078125 40.578125 -58.078125 C 37.046875 -58.078125 33.617188 -56.441406 30.296875 -53.171875 C 26.984375 -49.898438 24.15625 -46.007812 21.8125 -41.5 C 19.46875 -37 17.941406 -32.9375 17.234375 -29.3125 Z M 17.234375 -29.3125 "/></g></g></g></g></g></svg>